# xmcd CD database file
#
# Track frame offsets:
#	150
#	11657
#	23608
#	33814
#	43350
#	60529
#	73001
#	86558
#	97616
#	108442
#	120899
#	129375
#	138605
#	151393
#	164146
#	177072
#
# Disc length: 2472 seconds
#
# Revision: 0
# Processed by: cddbd v1.5.2PL0 Copyright (c) Steve Scherf et al.
# Submitted via: CDex 1.70beta2
#
DISCID=c809a610
DTITLE=Šlapeto - Košilaté písničky 1
DYEAR=1900
DGENRE=Country
TTITLE0=Píseň o krásné panně Majolence a kanárkovi pana Aloise
TTITLE1=Ku Praze uhání vlak
TTITLE2=Pan Urban a milostpanin turban
TTITLE3=Píseň o starém kocourovi
TTITLE4=Já chodím ráno k Emě
TTITLE5=Za tou naší garáží
TTITLE6=Studentská světnička
TTITLE7=Pepi, Ty něco máš
TTITLE8=Na Františku v Celetný ulici
TTITLE9=Holka neznámá
TTITLE10=Panna Kačka
TTITLE11=Šup sem šup tam
TTITLE12=Něco se smí a něco ne
TTITLE13=Emanuel Přibyl
TTITLE14=Do hospody přišla
TTITLE15=Stál na nároží bijásek
EXTD=
EXTT0=
EXTT1=
EXTT2=
EXTT3=
EXTT4=
EXTT5=
EXTT6=
EXTT7=
EXTT8=
EXTT9=
EXTT10=
EXTT11=
EXTT12=
EXTT13=
EXTT14=
EXTT15=
PLAYORDER=
